<?xml version="1.0" encoding="UTF-8" standalone="no"?>
<svg
   xmlns:dc="http://purl.org/dc/elements/1.1/"
   xmlns:cc="http://creativecommons.org/ns#"
   xmlns:rdf="http://www.w3.org/1999/02/22-rdf-syntax-ns#"
   xmlns:svg="http://www.w3.org/2000/svg"
   xmlns="http://www.w3.org/2000/svg"
   viewBox="0 0 315.1073 422.67886"
   height="422.67886"
   width="315.1073"
   version="1.1"
   id="svg4206">
  <metadata
     id="metadata4212">
    <rdf:RDF>
      <cc:Work
         rdf:about="">
        <dc:format>image/svg+xml</dc:format>
        <dc:type
           rdf:resource="http://purl.org/dc/dcmitype/StillImage" />
        <dc:title></dc:title>
      </cc:Work>
    </rdf:RDF>
  </metadata>
  <defs
     id="defs4210" />
  <path
     id="path4216"
     d="M 145.43481,413.52909 C 115.10055,384.92424 76.6582,338.94519 52.96494,302.93031 -1.2847204,220.46827 -13.72679,150.53704 15.02421,89.682645 36.36516,44.512362 78.08448,12.163433 127.79462,2.241102 136.99338,0.404996 142.36557,0 157.52238,0 c 15.15681,0 20.529,0.404996 29.72776,2.241102 49.74457,9.929204 91.41468,42.239972 112.77041,87.441543 32.02189,67.777565 12.94646,149.694685 -56.06111,240.747665 -19.96149,26.33846 -47.41614,56.52157 -71.40387,78.5 -7.80366,7.15 -14.75544,13.31896 -15.4484,13.7088 -0.7961,0.44786 -5.09314,-2.90589 -11.67236,-9.11001 z M 179.02238,222.89008 C 232.698,208.19924 257.86092,146.90579 229.91184,98.930315 223.74173,88.339135 209.79271,74.47964 199.52238,68.735898 c -26.33259,-14.72665 -57.66741,-14.72665 -84,0 -10.27033,5.743742 -24.21935,19.603237 -30.38946,30.194417 -19.22425,32.999025 -13.88336,75.183695 12.9112,101.978265 12.09783,12.09782 29.86138,21.12516 46.97826,23.87409 6.00798,0.96487 28.0408,-0.26157 34,-1.89259 z"
     style="fill:#000000" />
</svg>
